<svg id="logo" xmlns="http://www.w3.org/2000/svg" xmlns:xlink="http://www.w3.org/1999/xlink" width="205.836" height="91.228" viewBox="0 0 205.836 91.228">
  <defs>
    <clipPath id="clip-path">
      <rect id="Rectangle_1" data-name="Rectangle 1" width="205.836" height="91.228" fill="#fff"/>
    </clipPath>
  </defs>
  <g id="Group_1" data-name="Group 1" clip-path="url(#clip-path)">
    <path id="Path_1" data-name="Path 1" d="M269.094,171.6a7.571,7.571,0,0,1-.949,3.941,7.356,7.356,0,0,1-2.5,2.538,10.957,10.957,0,0,1-3.507,1.361,19.281,19.281,0,0,1-3.982.413,10.586,10.586,0,0,1-4.229-.825,35.735,35.735,0,0,1-3.9-1.981l-.413-3.466a16.423,16.423,0,0,0,1.857,1.733,16.923,16.923,0,0,0,2.27,1.547,14.236,14.236,0,0,0,2.475,1.114,7.693,7.693,0,0,0,2.475.433,8.94,8.94,0,0,0,2.806-.433,6.336,6.336,0,0,0,2.27-1.279,6.153,6.153,0,0,0,1.506-2.063,6.62,6.62,0,0,0,.557-2.785,3.842,3.842,0,0,0-1.114-2.765,12.982,12.982,0,0,0-2.806-2.146q-1.691-.99-3.631-1.918a34.737,34.737,0,0,1-3.631-2,11.591,11.591,0,0,1-2.806-2.434,4.925,4.925,0,0,1-1.114-3.218,5.362,5.362,0,0,1,.8-2.95,7.16,7.16,0,0,1,2.063-2.1,9.27,9.27,0,0,1,2.806-1.258,11.743,11.743,0,0,1,3.033-.412,15.605,15.605,0,0,1,4.064.515,18.835,18.835,0,0,1,3.817,1.506l.33,2.723a11.514,11.514,0,0,0-1.713-1.32,14.221,14.221,0,0,0-2.021-1.073,13.386,13.386,0,0,0-2.166-.723A9.2,9.2,0,0,0,259.6,152a6.27,6.27,0,0,0-2.1.351,5.2,5.2,0,0,0-1.733,1.011,5.1,5.1,0,0,0-1.2,1.588,4.68,4.68,0,0,0-.454,2.084,3.169,3.169,0,0,0,1.114,2.393,14.509,14.509,0,0,0,2.764,1.96q1.65.929,3.61,1.836a23.594,23.594,0,0,1,3.61,2.064,11.674,11.674,0,0,1,2.764,2.682,5.993,5.993,0,0,1,1.114,3.631" transform="translate(-146.857 -88.628)" fill="#fff"/>
    <path id="Path_2" data-name="Path 2" d="M333.827,179.855a2.748,2.748,0,0,0,.084-.669v-.711q0-.877-.063-1.734t-.146-1.692l-2.09-16.967-10.156,21.774h-.418l-10.155-21.69-2.09,16.884q-.042.335-.1,1.024t-.083,1.421q-.022.732-.021,1.4a3.872,3.872,0,0,0,.084.962h-2.633a14.031,14.031,0,0,0,.69-2.277q.228-1.107.4-2.32l3.051-24.615h.585l11.367,24.114,11.242-24.114h.544L337,175.257q.167,1.254.418,2.34a15.985,15.985,0,0,0,.711,2.257Z" transform="translate(-180.049 -88.627)" fill="#fff"/>
    <path id="Path_3" data-name="Path 3" d="M393.109,179.855a4.46,4.46,0,0,0,.382-1.59q.041-.826.042-1.632V153.864q0-.8-.042-1.633a4.457,4.457,0,0,0-.382-1.589h4.027a4.431,4.431,0,0,0-.381,1.589q-.043.827-.042,1.633v22.768q0,.805.042,1.632a4.433,4.433,0,0,0,.381,1.59Z" transform="translate(-231.277 -88.627)" fill="#fff"/>
    <path id="Path_4" data-name="Path 4" d="M427.434,179.855H412a4.88,4.88,0,0,0,.361-1.378q.064-.656.063-1.462V153.822q0-.8-.042-1.632a4.113,4.113,0,0,0-.382-1.548h4.028a4.528,4.528,0,0,0-.339,1.484q-.042.763-.042,1.484V178.2H424.3a8.532,8.532,0,0,0,1.993-.233,20.127,20.127,0,0,0,1.95-.573Z" transform="translate(-242.392 -88.627)" fill="#fff"/>
    <path id="Path_5" data-name="Path 5" d="M475.987,179.855H460.554a4.607,4.607,0,0,0,.382-1.484q.041-.678.042-1.527v-22.9q0-.848-.042-1.7a4.491,4.491,0,0,0-.382-1.611h14.8l.975,2.289a9.927,9.927,0,0,0-3.6-.636H464.2v9.624h10.472l-.551,1.654H464.2V178.2h8.649a8.53,8.53,0,0,0,1.993-.233,20.185,20.185,0,0,0,1.95-.573Z" transform="translate(-270.957 -88.627)" fill="#fff"/>
    <path id="Path_6" data-name="Path 6" d="M24.219,152.628a16.153,16.153,0,0,0-1.024,2.152L13.04,179.855h-.419L2.507,154.738a14.637,14.637,0,0,0-1.086-2.152A17.579,17.579,0,0,0,0,150.643H4.3l9.362,23.236,9.4-23.236h2.466a19.448,19.448,0,0,0-1.316,1.985" transform="translate(0 -88.628)" fill="#fff"/>
    <path id="Path_7" data-name="Path 7" d="M86.569,179.855H71.136a4.6,4.6,0,0,0,.381-1.484q.042-.678.042-1.527v-22.9q0-.848-.042-1.7a4.488,4.488,0,0,0-.381-1.611h14.8l.976,2.289a9.928,9.928,0,0,0-3.6-.636H74.782v9.624H85.255l-.552,1.654H74.782V178.2h8.65a8.527,8.527,0,0,0,1.993-.233,20.2,20.2,0,0,0,1.951-.573Z" transform="translate(-41.851 -88.627)" fill="#fff"/>
    <path id="Path_8" data-name="Path 8" d="M192.46,177.911a14.639,14.639,0,0,1-1.087-2.152L181.26,150.642h-.418l-10.114,25.075a13.086,13.086,0,0,1-1.046,2.173q-.585.962-1.337,1.964h2.466l3.272-8.054,2.657-6.547,3.474-8.635,3.476,8.637,1.578,3.9h0l4.3,10.7h4.3a17.426,17.426,0,0,1-1.421-1.944" transform="translate(-99.043 -88.627)" fill="#fff"/>
    <path id="Path_9" data-name="Path 9" d="M129.09,173.474a62.064,62.064,0,0,1-5.669-7.483,8.257,8.257,0,0,0,3.18-.382,9.306,9.306,0,0,0,2.9-1.505,8.1,8.1,0,0,0,2.1-2.4,6.094,6.094,0,0,0,.806-3.1,8.293,8.293,0,0,0-.785-3.815,6.4,6.4,0,0,0-2.141-2.438,9.233,9.233,0,0,0-3.138-1.314,16.869,16.869,0,0,0-3.731-.4H119.69V152.3h.855a18.245,18.245,0,0,1,3.15.276,8.654,8.654,0,0,1,2.831,1,5.871,5.871,0,0,1,2.044,1.951,5.727,5.727,0,0,1,.788,3.138,5.6,5.6,0,0,1-.62,2.735,5.145,5.145,0,0,1-1.665,1.823,7.592,7.592,0,0,1-2.391,1.039,11.164,11.164,0,0,1-2.743.34,14.115,14.115,0,0,1-1.909-.128l-.339.466q2.628,3.9,5.272,7.717a55.284,55.284,0,0,0,5.964,7.208h5.045a45.292,45.292,0,0,1-6.881-6.381" transform="translate(-70.417 -88.628)" fill="#fff"/>
    <path id="Path_10" data-name="Path 10" d="M241.522,46.884a18.329,18.329,0,0,0-1.16,2.438l-11.5,28.4h-.474L216.934,49.274a16.647,16.647,0,0,0-1.231-2.438,19.881,19.881,0,0,0-1.609-2.2h4.875l10.6,26.316,10.649-26.316h2.792a22.263,22.263,0,0,0-1.49,2.249" transform="translate(-125.958 -26.26)" fill="#fff"/>
    <path id="Path_11" data-name="Path 11" d="M252.486,106.131a11.878,11.878,0,0,1-9.267,1.052l.25,1.516s5.849.184,9.75-1.582-.734-.986-.734-.986" transform="translate(-143.093 -62.339)" fill="#fff" fill-rule="evenodd"/>
    <path id="Path_12" data-name="Path 12" d="M236.132,106.434s5.985,1.541,10.943-1.589l.382,1.312a19.646,19.646,0,0,1-12.209,1.676c-7.031-1.256.884-1.4.884-1.4" transform="translate(-136.691 -61.683)" fill="#fff" fill-rule="evenodd"/>
    <path id="Path_13" data-name="Path 13" d="M231.454,30.812A39.6,39.6,0,0,0,235.6,33.1q2.213,1.059,4.143,2.189a14.817,14.817,0,0,1,3.2,2.448c.083.086.158.174.233.263l1.508-3.679a14.4,14.4,0,0,0-1.175-.916,26.9,26.9,0,0,0-4.119-2.354q-2.237-1.035-4.119-2.095a16.555,16.555,0,0,1-3.154-2.236,3.617,3.617,0,0,1-1.272-2.73,5.333,5.333,0,0,1,.518-2.378,5.813,5.813,0,0,1,1.365-1.812,5.927,5.927,0,0,1,1.978-1.153,7.15,7.15,0,0,1,2.4-.4,10.489,10.489,0,0,1,2.448.306,15.313,15.313,0,0,1,2.472.824,16.228,16.228,0,0,1,2.306,1.224,13.121,13.121,0,0,1,1.954,1.506L245.906,19a21.493,21.493,0,0,0-4.355-1.719,17.831,17.831,0,0,0-4.637-.588,13.424,13.424,0,0,0-3.461.471,10.592,10.592,0,0,0-3.2,1.436A8.174,8.174,0,0,0,227.9,21a6.116,6.116,0,0,0-.918,3.366,5.62,5.62,0,0,0,1.271,3.672,13.238,13.238,0,0,0,3.2,2.777" transform="translate(-133.539 -9.819)" fill="#fff"/>
    <path id="Path_14" data-name="Path 14" d="M214.693,46.812a.475.475,0,0,1,.156-.533,21.4,21.4,0,0,1-19.292-14.65C190.172,15.657,204.357-.332,221.6,3.77a48.193,48.193,0,0,1,5.678,2.048c-5.891-4.39-17.916-5.7-26.426,1.6C184.879,21.1,193.9,46.487,214.16,47.7c.263.016.527.025.791.03-.084-.307-.166-.615-.258-.921" transform="translate(-113.356 -1.314)" fill="#fff" fill-rule="evenodd"/>
    <path id="Path_15" data-name="Path 15" d="M266.137,71.089c-.491-4.893-4.386-8.795-4.386-8.795l-1.9,4.681s7.443,9.824-4.139,14.459a11.656,11.656,0,0,1-3.317.68.612.612,0,0,1-.055.375c-.042.086-.08.174-.116.263a21.137,21.137,0,0,0,5.744-1.115,16.257,16.257,0,0,0,4.535-2.583c4.354-3.625,3.629-7.965,3.629-7.965" transform="translate(-148.394 -36.649)" fill="#fff"/>
    <path id="Path_16" data-name="Path 16" d="M240.74,41.992l.544-.642c.182-.206.39-.473.627-.789s.51-.675.8-1.093a24.551,24.551,0,0,0,1.854-3.125A25.709,25.709,0,0,0,246.248,32,24.456,24.456,0,0,0,246.7,20.58a25.063,25.063,0,0,0-.832-3.071,28.107,28.107,0,0,0-1.273-2.992A22.893,22.893,0,0,0,240.8,9.109l-.283-.305-.288-.287-.618-.613c-.4-.359-.788-.729-1.229-1.072a20.287,20.287,0,0,0-2.7-1.883,22.2,22.2,0,0,0-2.9-1.44,19.476,19.476,0,0,0-3.007-.981,22.922,22.922,0,0,0-5.98-.618,23.328,23.328,0,0,0-2.8.276c-.453.056-.89.161-1.325.236-.429.1-.853.2-1.263.308a26.5,26.5,0,0,0-7.53,3.434c-.425.277-.8.535-1.118.769s-.6.426-.809.6l-.662.519.573-.617c.184-.206.423-.446.71-.725l.462-.451.551-.481a22.37,22.37,0,0,1,3.006-2.223A23.244,23.244,0,0,1,218,1.4,22.547,22.547,0,0,1,223.689.1a22.355,22.355,0,0,1,9.925,1.306,19.857,19.857,0,0,1,3.248,1.526,22.68,22.68,0,0,1,3.013,2.05c.482.366.947.8,1.416,1.209l.632.612.333.329.308.34a25.254,25.254,0,0,1,4.106,6.016,23.983,23.983,0,0,1,1.308,3.327,27.18,27.18,0,0,1,.79,3.391,23.844,23.844,0,0,1,.139,6.546,23.459,23.459,0,0,1-3.554,10.037,20.934,20.934,0,0,1-2.274,2.969l-.494.54-.465.451c-.286.281-.533.513-.744.688l-.635.552" transform="translate(-122.551 0)" fill="#fff"/>
  </g>
</svg>
