<svg xmlns="http://www.w3.org/2000/svg" width="215" height="30.516" viewBox="0 0 215 30.516"><path d="M394.969,259.875a7.883,7.883,0,0,1-.993,4.115,7.685,7.685,0,0,1-2.606,2.649,11.484,11.484,0,0,1-3.664,1.423,20.072,20.072,0,0,1-4.158.43,11.1,11.1,0,0,1-4.416-.86,37.877,37.877,0,0,1-4.072-2.068l-.43-3.621a17,17,0,0,0,1.939,1.81,18.14,18.14,0,0,0,2.369,1.617,15.269,15.269,0,0,0,2.584,1.165,8.044,8.044,0,0,0,2.584.452,9.369,9.369,0,0,0,2.933-.452,6.563,6.563,0,0,0,2.369-1.337,6.406,6.406,0,0,0,1.574-2.154,6.94,6.94,0,0,0,.58-2.911,4.013,4.013,0,0,0-1.165-2.89,13.474,13.474,0,0,0-2.933-2.24q-1.767-1.032-3.793-2a36.071,36.071,0,0,1-3.793-2.09,12.266,12.266,0,0,1-2.933-2.541,5.159,5.159,0,0,1-1.165-3.363,5.613,5.613,0,0,1,.839-3.083,7.44,7.44,0,0,1,2.154-2.2,9.7,9.7,0,0,1,2.933-1.316,12.236,12.236,0,0,1,3.169-.43,16.371,16.371,0,0,1,4.244.537,19.53,19.53,0,0,1,3.986,1.574l.344,2.842a12.339,12.339,0,0,0-1.789-1.38,15.274,15.274,0,0,0-2.111-1.122,13.547,13.547,0,0,0-2.262-.752,9.65,9.65,0,0,0-2.24-.28,6.617,6.617,0,0,0-2.2.366,5.429,5.429,0,0,0-1.81,1.058,5.348,5.348,0,0,0-1.251,1.66,4.855,4.855,0,0,0-.473,2.176,3.307,3.307,0,0,0,1.165,2.5,15.019,15.019,0,0,0,2.89,2.047q1.722.967,3.771,1.918a24.6,24.6,0,0,1,3.771,2.154,12.269,12.269,0,0,1,2.89,2.8A6.311,6.311,0,0,1,394.969,259.875Z" transform="translate(-267.287 -237.976)" fill="#163561"/><path d="M460.053,268.492a2.757,2.757,0,0,0,.086-.7v-.744c0-.611-.021-1.213-.064-1.81s-.095-1.187-.151-1.767L457.74,245.75l-10.608,22.742h-.439l-10.608-22.656L433.9,263.47c-.03.232-.064.589-.107,1.071s-.073.976-.086,1.483-.022,1-.022,1.462a4.24,4.24,0,0,0,.086,1.006H431.02a15.191,15.191,0,0,0,.722-2.378q.239-1.155.413-2.425l3.186-25.709h.611l11.872,25.189,11.743-25.189h.568l3.229,25.709c.116.873.262,1.69.439,2.442a16.605,16.605,0,0,0,.744,2.356h-4.493Z" transform="translate(-299.43 -237.976)" fill="#163561"/><path d="M518.11,268.492a4.651,4.651,0,0,0,.4-1.66c.03-.576.043-1.144.043-1.7V241.347c0-.559-.017-1.131-.043-1.707a4.629,4.629,0,0,0-.4-1.66h4.205a4.628,4.628,0,0,0-.4,1.66c-.03.576-.043,1.144-.043,1.707V265.13c0,.559.013,1.131.043,1.7a4.628,4.628,0,0,0,.4,1.66Z" transform="translate(-349.072 -237.976)" fill="#163561"/><path d="M553.12,268.492H537a5.19,5.19,0,0,0,.378-1.44c.043-.456.065-.967.065-1.526V241.3c0-.559-.017-1.131-.043-1.7a4.283,4.283,0,0,0-.4-1.617h4.205a4.656,4.656,0,0,0-.353,1.548c-.026.529-.043,1.049-.043,1.548v25.688h9.034a8.861,8.861,0,0,0,2.081-.245c.679-.163,1.359-.361,2.038-.6Z" transform="translate(-359.839 -237.976)" fill="#163561"/><path d="M601.67,268.492H585.55a4.82,4.82,0,0,0,.4-1.548c.03-.473.043-1,.043-1.6V241.433c0-.589-.017-1.182-.043-1.772a4.676,4.676,0,0,0-.4-1.681h15.458l1.019,2.391a10.906,10.906,0,0,0-1.862-.507,11.062,11.062,0,0,0-1.9-.155h-8.9v10.053H600.3l-.576,1.729H589.36v15.278h9.034a8.861,8.861,0,0,0,2.081-.245q1.019-.245,2.038-.6Z" transform="translate(-387.513 -237.976)" fill="#163561"/><path d="M150.291,240.053a17.33,17.33,0,0,0-1.071,2.249l-10.608,26.191h-.439l-10.565-26.234a15.216,15.216,0,0,0-1.135-2.249,18.551,18.551,0,0,0-1.483-2.03h4.5l9.778,24.269,9.821-24.269h2.576A20.992,20.992,0,0,0,150.291,240.053Z" transform="translate(-124.99 -237.976)" fill="#163561"/><path d="M212.25,268.492H196.13a4.82,4.82,0,0,0,.4-1.548c.03-.473.043-1,.043-1.6V241.433c0-.589-.017-1.182-.043-1.772a4.676,4.676,0,0,0-.4-1.681h15.454l1.019,2.391a10.906,10.906,0,0,0-1.862-.507,11.062,11.062,0,0,0-1.9-.155h-8.9v10.053h10.939l-.576,1.729H199.935v15.278h9.038a8.862,8.862,0,0,0,2.081-.245q1.019-.245,2.038-.6Z" transform="translate(-165.54 -237.976)" fill="#163561"/><path d="M318.523,266.463a15.009,15.009,0,0,1-1.135-2.249L306.823,237.98h-.439L295.82,264.171a13.929,13.929,0,0,1-1.092,2.27q-.613,1.006-1.4,2.051h2.576l3.418-8.411,2.773-6.837,3.629-9.021,3.629,9.021L311,257.317h0l4.5,11.175H320A19.065,19.065,0,0,1,318.523,266.463Z" transform="translate(-220.945 -237.976)" fill="#163561"/><path d="M254.507,261.822A64.677,64.677,0,0,1,248.586,254a8.541,8.541,0,0,0,3.32-.4,9.668,9.668,0,0,0,3.036-1.574,8.484,8.484,0,0,0,2.193-2.5,6.387,6.387,0,0,0,.843-3.234,8.666,8.666,0,0,0-.821-3.986,6.658,6.658,0,0,0-2.236-2.546,9.588,9.588,0,0,0-3.277-1.372,17.65,17.65,0,0,0-3.9-.421H244.69V239.7h.894a18.892,18.892,0,0,1,3.289.288,9.05,9.05,0,0,1,2.958,1.041,6.125,6.125,0,0,1,2.133,2.038,5.99,5.99,0,0,1,.821,3.277,5.85,5.85,0,0,1-.645,2.855,5.372,5.372,0,0,1-1.741,1.9,7.906,7.906,0,0,1-2.5,1.084,11.66,11.66,0,0,1-2.864.353,14.536,14.536,0,0,1-2-.133l-.353.486q2.748,4.076,5.508,8.058a57.611,57.611,0,0,0,6.231,7.529H261.7A47.089,47.089,0,0,1,254.507,261.822Z" transform="translate(-193.22 -237.97)" fill="#163561"/></svg>